# xmcd CD database file
#
# Track frame offsets:
#	150
#	10755
#	23622
#	33150
#	42358
#	53073
#	65878
#	75735
#	88019
#	100156
#	113175
#	125034
#	135976
#	147950
#	160205
#	174758
#	184350
#	196249
#	206013
#	216486
#
# Disc length: 3048 seconds
#
# Revision: 0
# Processed by: cddbd v1.5.2PL0 Copyright (c) Steve Scherf et al.
# Submitted via: CDex 1.70beta2
#
DISCID=170be614
DTITLE=Compilation Bal Country - Grands classiques de la country music
DYEAR=2012
DGENRE=Country
TTITLE0=Clementine
TTITLE1=She'll be comin' round the mountain
TTITLE2=The yellow rose of Texas
TTITLE3=Oh Suzanna
TTITLE4=Jesse James
TTITLE5=Guitar boogie
TTITLE6=Yakery axe
TTITLE7=San Antonio rose
TTITLE8=Wabash cannonball
TTITLE9=New river train
TTITLE10=Mississippi sawyer
TTITLE11=Duelling banjos
TTITLE12=Nine pound hammer
TTITLE13=This land is your land
TTITLE14=Mule skinner blues
TTITLE15=The breakman's blues
TTITLE16=Lovesick blues
TTITLE17=Jambalaya
TTITLE18=Honky tonk blues
TTITLE19=I'm so lonesone I could cry
EXTD=YEAR: 2012
EXTT0=
EXTT1=
EXTT2=
EXTT3=
EXTT4=
EXTT5=
EXTT6=
EXTT7=
EXTT8=
EXTT9=
EXTT10=
EXTT11=
EXTT12=
EXTT13=
EXTT14=
EXTT15=
EXTT16=
EXTT17=
EXTT18=
EXTT19=
PLAYORDER=
